<svg xmlns="http://www.w3.org/2000/svg" xmlns:xlink="http://www.w3.org/1999/xlink" width="512" zoomAndPan="magnify" viewBox="0 0 384 383.999986" height="512" preserveAspectRatio="xMidYMid meet" version="1.0"><defs><clipPath id="251bd1fd7c"><path d="M 13 10.402344 L 371.402344 10.402344 L 371.402344 373.402344 L 13 373.402344 Z M 13 10.402344 " clip-rule="nonzero"/></clipPath></defs><g clip-path="url(#251bd1fd7c)"><path fill="#000000" d="M 370.714844 180.867188 C 370.753906 177.261719 370.414062 173.691406 369.730469 170.160156 C 368.929688 164.308594 368.511719 158.382812 367.144531 152.613281 C 366.273438 149.761719 365.929688 146.761719 364.828125 143.988281 C 363.839844 139.925781 362.132812 136.050781 361.144531 131.949219 C 359.96875 129.292969 359.359375 126.441406 358.144531 123.785156 C 356.585938 120.023438 355.257812 116.148438 353.359375 112.542969 C 351.6875 109.046875 350.09375 105.515625 348.269531 102.136719 C 346.332031 99.097656 344.394531 96.058594 342.574219 92.945312 C 341.507812 91.460938 340.523438 89.945312 339.609375 88.347656 C 333.457031 79.234375 326.355469 70.800781 318.492188 63.128906 C 315.378906 60.546875 312.984375 57.242188 309.871094 54.660156 C 307.441406 52.265625 304.742188 50.175781 302.125 47.976562 C 299.539062 46.191406 296.917969 44.480469 294.261719 42.886719 C 293.082031 42.085938 292.019531 41.0625 290.765625 40.339844 C 287.957031 38.59375 285.410156 36.464844 282.375 35.0625 C 278.992188 33.503906 276.105469 31.074219 272.726562 29.476562 C 267.675781 27.199219 262.625 24.882812 257.496094 22.71875 C 252.484375 21.007812 247.316406 19.679688 242.378906 17.667969 C 236.683594 15.730469 230.71875 14.96875 224.910156 13.640625 C 221.566406 13.070312 218.148438 12.957031 214.804688 12.347656 C 211.160156 11.550781 207.398438 11.550781 203.753906 11.09375 C 200.867188 10.792969 197.941406 11.019531 195.019531 10.714844 C 191.789062 10.488281 188.523438 10.867188 185.292969 10.945312 C 176.9375 11.132812 168.660156 12.464844 160.378906 13.640625 C 155.367188 14.589844 150.390625 15.578125 145.453125 16.792969 C 140.972656 18.085938 136.679688 20.019531 132.160156 21.199219 C 128.324219 22.414062 124.601562 23.894531 120.957031 25.605469 C 116.625 27.390625 112.410156 29.402344 108.269531 31.566406 C 105.496094 33.429688 102.535156 34.949219 99.648438 36.617188 C 97.332031 38.0625 95.089844 39.582031 92.925781 41.253906 C 88.597656 43.796875 84.457031 46.609375 80.46875 49.722656 C 77.921875 51.582031 75.757812 53.898438 73.289062 55.835938 C 70.214844 58.835938 67.363281 62.066406 64.097656 64.875 C 62.238281 66.925781 60.339844 68.941406 58.324219 70.878906 C 54.753906 74.941406 51.488281 79.234375 48.183594 83.523438 C 46.78125 85.539062 45.222656 87.476562 44.007812 89.640625 C 41.574219 92.945312 39.828125 96.742188 37.246094 99.96875 C 35.726562 102.894531 33.980469 105.742188 32.765625 108.820312 C 30.675781 113.226562 28.398438 117.554688 26.761719 122.152344 C 24.523438 127.011719 23.269531 132.214844 21.371094 137.191406 C 20.839844 138.863281 20.496094 140.570312 19.8125 142.167969 C 18.671875 145.054688 18.21875 148.089844 17.421875 151.054688 C 16.621094 154.015625 16.28125 157.207031 15.636719 160.246094 C 14.988281 163.398438 15.066406 166.703125 14.417969 169.929688 C 12.902344 177.90625 13.203125 186.074219 13.167969 194.164062 C 13.203125 197.960938 13.050781 201.796875 13.46875 205.59375 C 13.585938 210.53125 14.835938 215.355469 15.253906 220.292969 C 15.484375 223.253906 16.28125 226.179688 16.660156 229.105469 C 16.851562 230.699219 17.15625 232.257812 17.648438 233.777344 C 19.507812 241.296875 22.128906 248.625 24.523438 255.996094 C 26.382812 261.425781 28.777344 266.628906 31.132812 271.832031 C 32.878906 274.757812 34.132812 277.949219 35.613281 281.023438 C 36.941406 283.683594 39.105469 285.808594 40.359375 288.46875 C 40.929688 289.609375 41.613281 290.710938 42.410156 291.734375 C 43.664062 293.445312 44.539062 295.34375 45.867188 297.015625 C 46.742188 298.078125 47.5 299.214844 48.222656 300.355469 C 49.132812 301.914062 50.539062 303.128906 51.601562 304.570312 C 55.855469 310.230469 60.605469 315.546875 65.769531 320.410156 C 70.097656 324.207031 73.707031 328.691406 78.1875 332.335938 C 80.164062 334.046875 82.367188 335.449219 84.304688 337.160156 C 87.113281 339.019531 90.078125 340.691406 92.8125 342.742188 C 97.902344 346.691406 103.902344 349.273438 109.257812 352.882812 C 112.183594 354.59375 115.410156 355.808594 118.410156 357.363281 C 120.613281 358.316406 122.890625 359.035156 124.980469 360.289062 C 130.832031 362.605469 136.984375 364.085938 142.871094 366.328125 C 147.429688 368.304688 152.480469 368.722656 157.265625 369.898438 C 159.125 370.316406 161.0625 370.582031 162.960938 370.734375 C 171.394531 372.175781 179.9375 373.394531 188.523438 373.316406 C 193.726562 373.277344 198.929688 373.507812 204.09375 372.9375 C 206.90625 372.859375 209.640625 372.328125 212.449219 372.0625 C 215.90625 371.757812 219.289062 370.886719 222.742188 370.582031 C 225.972656 370.316406 229.125 369.367188 232.316406 368.796875 C 235.316406 368.304688 238.316406 367.507812 241.203125 366.519531 C 243.101562 365.910156 244.847656 364.960938 246.785156 364.503906 C 249.253906 363.898438 251.570312 362.796875 254.078125 362.1875 C 257.152344 361.429688 259.925781 359.871094 262.890625 358.808594 C 266.195312 357.136719 269.648438 355.808594 272.953125 354.097656 C 275.652344 352.882812 277.929688 350.910156 280.550781 349.542969 C 283.285156 348.171875 285.90625 346.617188 288.449219 344.871094 C 292.398438 341.945312 296.617188 339.398438 300.679688 336.589844 C 301.78125 335.792969 302.996094 335.144531 303.871094 334.082031 C 305.160156 332.5625 306.984375 331.652344 308.390625 330.207031 C 310.480469 328.121094 312.949219 326.410156 314.695312 323.980469 C 318 320.828125 321.570312 317.902344 324.378906 314.296875 C 327.191406 311.144531 330.113281 308.066406 332.582031 304.609375 C 333.648438 303.167969 334.9375 301.875 335.851562 300.316406 C 337.21875 298.382812 338.773438 296.597656 340.027344 294.621094 C 342.003906 291.277344 344.128906 288.050781 346.105469 284.671875 C 349.027344 281.101562 350.585938 276.730469 352.675781 272.667969 C 355.144531 267.730469 357.082031 262.566406 359.054688 257.398438 C 360.421875 253.945312 361.523438 250.410156 362.589844 246.878906 C 363.234375 244.636719 364.222656 242.511719 364.714844 240.195312 C 365.476562 237.5 366.042969 234.761719 366.878906 232.105469 C 367.5625 229.523438 367.828125 226.824219 368.359375 224.203125 C 368.96875 221.242188 369.121094 218.242188 369.5 215.28125 C 369.578125 213 370.222656 210.761719 370.449219 208.480469 C 370.90625 205.214844 370.679688 201.871094 371.019531 198.566406 C 370.945312 192.757812 371.097656 186.832031 370.714844 180.867188 Z M 353.132812 202.519531 C 352.75 205.972656 352.523438 209.429688 352.21875 212.886719 C 351.042969 220.140625 350.09375 227.433594 348.042969 234.496094 C 347.433594 237.230469 346.558594 239.890625 345.34375 242.4375 C 344.507812 244.789062 343.863281 247.183594 343.105469 249.539062 C 341.964844 252.691406 340.558594 255.730469 339.496094 258.882812 C 338.507812 261.769531 336.800781 264.351562 335.507812 267.085938 C 334.597656 268.984375 333.117188 270.542969 332.242188 272.476562 C 330.457031 276.238281 328.292969 279.808594 325.785156 283.152344 C 324.113281 285.238281 323.164062 287.785156 321.226562 289.609375 C 318.796875 292.722656 316.289062 295.796875 313.820312 298.875 C 312.265625 301.078125 310.136719 302.785156 308.351562 304.835938 C 306.1875 307.230469 303.871094 309.472656 301.667969 311.828125 C 299.273438 313.613281 297.488281 316.082031 294.945312 317.636719 C 292.476562 319.308594 290.425781 321.511719 287.917969 323.144531 C 286.398438 324.132812 285.070312 325.421875 283.472656 326.296875 C 282.144531 327.09375 280.890625 328.007812 279.714844 328.992188 C 277.132812 331.082031 273.980469 332.261719 271.398438 334.3125 C 270.03125 335.335938 268.394531 335.828125 266.914062 336.664062 C 261.484375 339.703125 255.710938 342.097656 249.898438 344.375 C 247.277344 345.324219 244.808594 346.730469 242.152344 347.527344 C 238.238281 349.046875 234.0625 349.808594 229.996094 350.757812 C 225.707031 351.972656 221.375 353.074219 217.007812 353.945312 C 214.046875 354.746094 210.96875 354.78125 207.929688 355.085938 C 205.160156 355.464844 202.386719 355.199219 199.613281 355.578125 C 195.054688 355.847656 190.496094 355.847656 185.941406 355.65625 C 182.976562 355.277344 179.976562 355.429688 177.015625 355.199219 C 170.785156 354.667969 164.671875 353.414062 158.632812 351.933594 C 154.226562 350.453125 149.667969 349.542969 145.109375 348.476562 C 142.035156 347.488281 139.035156 346.3125 136.148438 344.90625 C 127.335938 341.601562 118.675781 337.765625 110.738281 332.675781 C 108.117188 331.539062 105.878906 329.714844 103.597656 328.042969 C 100.21875 326.070312 97.140625 323.636719 94.027344 321.285156 C 90.761719 318.625 87.191406 316.269531 84.226562 313.230469 C 81.683594 310.457031 78.683594 308.140625 76.289062 305.179688 C 73.933594 302.597656 71.316406 300.242188 69.226562 297.429688 C 64.59375 292.191406 60.566406 286.53125 56.652344 280.757812 C 55.25 278.441406 53.617188 276.277344 52.589844 273.769531 C 51.640625 271.453125 49.96875 269.589844 48.792969 267.425781 C 47.195312 264.160156 45.375 260.96875 44.042969 257.589844 C 43.246094 255.160156 42.335938 252.804688 41.273438 250.488281 C 40.171875 248.132812 39.828125 245.511719 38.839844 243.121094 C 36.296875 237.308594 35.082031 231.042969 33.675781 224.851562 C 33.144531 221.621094 32.917969 218.316406 32.195312 215.089844 C 31.699219 212.507812 31.664062 209.886719 31.28125 207.304688 C 30.902344 204.722656 31.511719 201.984375 32.421875 199.554688 C 33.636719 195.796875 35.082031 192.074219 37.207031 188.730469 C 38.839844 186.605469 40.625 184.589844 42.527344 182.691406 C 45.109375 180.183594 48.449219 178.742188 51.753906 177.414062 C 56.539062 175.515625 61.742188 174.90625 66.871094 175.703125 C 66.113281 179.578125 64.820312 183.300781 64.210938 187.210938 C 63.375 194.3125 63.984375 201.492188 65.921875 208.367188 C 66.605469 210.53125 66.71875 212.8125 67.441406 214.976562 C 68.617188 218.621094 69.949219 222.191406 71.429688 225.722656 C 72.910156 228.230469 73.785156 231.042969 75.492188 233.433594 C 77.164062 236.015625 78.722656 238.75 80.847656 240.992188 C 81.910156 242.132812 82.707031 243.535156 84.078125 244.335938 C 85.519531 244.5625 86.960938 244.222656 88.367188 243.992188 C 93.230469 242.851562 97.863281 240.878906 102.269531 238.597656 C 104.964844 237.042969 107.359375 235.066406 109.902344 233.359375 C 112.332031 231.800781 114.234375 229.558594 116.359375 227.625 C 118.296875 225.496094 120.15625 223.253906 121.867188 220.976562 C 126.460938 214.785156 129.425781 207.53125 131.285156 200.085938 C 132.234375 196.289062 132.199219 192.339844 132.160156 188.425781 C 132.160156 185.730469 131.933594 183.070312 131.476562 180.414062 C 129.917969 174.03125 127.792969 167.613281 123.957031 162.21875 C 118.601562 154.851562 110.359375 149.191406 101.128906 148.433594 C 91.484375 147.675781 82.0625 152.574219 75.835938 159.75 C 73.898438 162.296875 72.074219 164.957031 70.441406 167.726562 C 67.933594 168.070312 65.3125 167.425781 62.769531 167.539062 C 59.921875 167.765625 57.070312 167.839844 54.300781 168.523438 C 49.78125 169.777344 45.261719 171.222656 41.273438 173.730469 C 39.257812 174.945312 37.019531 175.742188 35.121094 177.109375 C 33.789062 178.058594 32.460938 179.082031 30.828125 179.351562 C 31.132812 176.273438 31.625 173.234375 31.816406 170.160156 C 31.929688 167.839844 32.878906 165.675781 33.03125 163.359375 C 33.410156 159.523438 34.359375 155.765625 35.121094 152.003906 C 36.144531 148.625 36.523438 144.976562 38.195312 141.824219 C 38.992188 140.304688 39.183594 138.558594 39.753906 136.964844 C 40.742188 134.378906 41.460938 131.761719 42.640625 129.253906 C 43.589844 127.316406 43.894531 125.074219 44.957031 123.175781 C 46.019531 121.277344 46.855469 119.226562 47.84375 117.289062 C 49.324219 114.402344 51.414062 111.894531 52.78125 108.972656 C 55.703125 102.628906 60.414062 97.351562 64.289062 91.578125 C 67.972656 87.285156 71.390625 82.765625 75.53125 78.851562 C 78.265625 75.890625 81.039062 72.964844 84.039062 70.269531 C 85.328125 68.902344 86.734375 67.648438 88.253906 66.507812 C 93.34375 62.332031 98.8125 58.535156 104.207031 54.734375 C 106.484375 53.519531 108.382812 51.695312 110.777344 50.632812 C 112.828125 49.570312 114.652344 48.089844 116.777344 47.140625 C 120.421875 45.429688 123.804688 43.113281 127.679688 42.050781 C 129.160156 41.632812 130.335938 40.605469 131.742188 40.035156 C 133.375 39.351562 135.160156 39.050781 136.832031 38.328125 C 139.222656 37.226562 141.65625 36.238281 144.125 35.328125 C 149.78125 33.960938 155.441406 32.515625 161.101562 31.148438 C 164.859375 29.933594 168.8125 29.554688 172.683594 28.910156 C 175.800781 28.453125 178.914062 28.1875 182.027344 28.148438 C 184.535156 27.84375 187.078125 27.960938 189.625 27.882812 C 193.917969 27.691406 198.246094 27.808594 202.539062 28.1875 C 206.867188 28.1875 211.199219 28.605469 215.453125 29.515625 C 218.984375 29.820312 222.402344 30.84375 225.820312 31.757812 C 231.480469 33.464844 237.480469 33.960938 242.910156 36.390625 C 246.140625 37.453125 249.140625 39.085938 252.40625 40.113281 C 255.9375 41.632812 259.546875 43.039062 263.039062 44.632812 C 266.230469 46.570312 269.800781 47.824219 272.800781 50.0625 C 274.167969 51.050781 275.839844 51.546875 277.285156 52.457031 C 279.410156 53.863281 281.15625 55.761719 283.398438 57.015625 C 285.070312 57.925781 286.511719 59.21875 288.03125 60.355469 C 291.148438 62.671875 294.183594 65.066406 297.261719 67.457031 C 299.882812 70.042969 302.65625 72.433594 305.238281 75.054688 C 309.035156 79.234375 313.097656 83.183594 316.554688 87.664062 C 317.582031 89.03125 318.910156 90.171875 319.746094 91.691406 C 320.847656 93.589844 322.519531 95.03125 323.65625 96.894531 C 325.59375 100.121094 328.214844 102.933594 329.8125 106.351562 C 330.648438 108.097656 331.9375 109.617188 332.582031 111.476562 C 333.230469 113.339844 334.710938 114.667969 335.699219 116.339844 C 336.800781 118.125 337.367188 120.175781 338.355469 122.035156 C 339.039062 123.328125 339.609375 124.695312 340.027344 126.101562 C 340.824219 128.835938 342.457031 131.226562 343.105469 134 C 344.507812 139.621094 347.394531 144.824219 348.34375 150.558594 C 348.914062 152.726562 349.371094 154.890625 349.789062 157.054688 C 350.8125 160.777344 350.929688 164.652344 351.800781 168.375 C 352.5625 173.765625 352.636719 179.199219 353.320312 184.589844 C 353.511719 190.628906 353.738281 196.59375 353.132812 202.519531 Z M 353.132812 202.519531 " fill-opacity="1" fill-rule="nonzero"/></g><path fill="#000000" d="M 269.421875 211.253906 C 268.167969 210.078125 267.027344 208.785156 266.003906 207.417969 C 264.105469 205.554688 262.167969 203.734375 260.15625 201.949219 C 259.054688 205.707031 257.496094 209.316406 256.46875 213.078125 C 254.230469 219.382812 252.066406 225.722656 250.089844 232.144531 C 248.152344 237.15625 246.746094 242.359375 244.886719 247.410156 C 243.175781 253.375 240.898438 259.148438 238.847656 264.957031 C 236.71875 272.707031 233.605469 280.152344 231.328125 287.859375 C 230.414062 290.441406 229.046875 292.910156 228.628906 295.648438 C 233.226562 294.695312 237.671875 293.179688 242.265625 292.226562 C 245.492188 291.203125 248.835938 290.710938 251.988281 289.492188 C 252.9375 289.152344 253.128906 288.050781 253.46875 287.214844 C 255.253906 282.351562 256.394531 277.265625 258.179688 272.402344 C 259.203125 269.628906 259.8125 266.742188 260.875 263.972656 C 262.242188 260.285156 262.925781 256.414062 264.332031 252.726562 C 265.925781 248.398438 267.257812 243.992188 268.546875 239.550781 C 269.496094 235.980469 271.054688 232.597656 271.964844 228.992188 C 272.535156 227.128906 273.183594 225.304688 273.75 223.445312 C 274.433594 221.660156 274.890625 219.648438 274.359375 217.785156 C 272.953125 215.546875 271.28125 213.34375 269.421875 211.253906 Z M 269.421875 211.253906 " fill-opacity="1" fill-rule="nonzero"/><path fill="#000000" d="M 311.046875 278.632812 C 309.148438 276.582031 307.402344 274.453125 305.769531 272.175781 C 303.566406 268.984375 300.605469 266.402344 298.285156 263.285156 C 296.691406 261.464844 295.019531 259.71875 293.5 257.855469 C 291.980469 256.109375 290.691406 254.132812 288.867188 252.691406 C 287.765625 255.007812 287.160156 257.476562 286.019531 259.792969 C 281.804688 267.921875 279.714844 277.074219 274.816406 284.820312 C 277.019531 284.214844 279.257812 283.835938 281.539062 283.605469 C 286.09375 283.378906 290.652344 282.46875 295.25 282.542969 C 299.046875 282.621094 302.84375 282.390625 306.644531 282.769531 C 309.414062 282.769531 312.148438 283.339844 314.921875 283.152344 C 313.820312 281.480469 312.53125 279.960938 311.046875 278.632812 Z M 311.046875 278.632812 " fill-opacity="1" fill-rule="nonzero"/><path fill="#000000" d="M 164.632812 174.867188 C 167.480469 173.460938 170.214844 171.867188 172.835938 170.121094 C 176.066406 168.335938 179.066406 166.207031 182.21875 164.347656 C 186.015625 161.613281 190.230469 159.449219 194.144531 156.867188 C 195.851562 155.421875 197.941406 154.546875 199.839844 153.484375 C 204.324219 150.484375 209.148438 147.941406 213.589844 144.824219 C 220.160156 140.570312 226.84375 136.546875 233.53125 132.480469 C 236.871094 130.164062 240.40625 128.191406 243.898438 126.175781 C 244.734375 125.644531 245.835938 125.339844 246.292969 124.390625 C 246.519531 123.214844 246.367188 122.035156 246.445312 120.859375 C 247.011719 114.023438 247.203125 107.148438 247.734375 100.3125 C 248.230469 91.5 248.914062 82.6875 249.179688 73.878906 C 249.976562 66.28125 250.394531 58.609375 250.621094 50.976562 C 250.773438 49 251.113281 47.023438 251.265625 45.050781 C 249.027344 45.542969 246.898438 46.492188 244.621094 46.835938 C 242.039062 47.214844 239.683594 48.46875 237.136719 49.078125 C 229.960938 50.898438 222.667969 52.304688 215.527344 54.394531 C 211.957031 55.265625 208.347656 56.066406 204.816406 56.976562 C 202.613281 57.546875 200.257812 57.851562 198.171875 58.800781 C 196.804688 61.535156 196.269531 64.574219 195.054688 67.382812 C 193.878906 70.117188 192.851562 72.890625 191.980469 75.738281 C 190.992188 78.777344 189.359375 81.585938 188.371094 84.625 C 187.308594 88.121094 185.828125 91.5 184.648438 94.996094 C 182.40625 100.273438 181.039062 105.855469 178.648438 111.0625 C 176.863281 116.492188 174.699219 121.808594 172.761719 127.203125 C 171.128906 130.582031 170.367188 134.265625 168.734375 137.648438 C 167.292969 141.332031 166.039062 145.054688 164.59375 148.777344 C 162.316406 154.015625 160.644531 159.484375 158.632812 164.804688 C 157.53125 167.574219 155.859375 170.195312 155.367188 173.195312 C 157.265625 174.070312 159.238281 174.753906 161.214844 175.476562 C 162.46875 175.96875 163.609375 175.285156 164.632812 174.867188 Z M 164.632812 174.867188 " fill-opacity="1" fill-rule="nonzero"/><path fill="#000000" d="M 277.398438 124.46875 C 273.714844 124.46875 270.066406 123.972656 266.421875 123.9375 C 264.597656 124.621094 262.964844 125.796875 261.371094 126.859375 C 259.507812 128.226562 257.382812 129.140625 255.519531 130.507812 C 249.40625 134.378906 243.367188 138.40625 237.253906 142.242188 C 235.011719 143.457031 232.808594 144.824219 230.71875 146.308594 C 228.25 148.09375 225.363281 149.269531 222.859375 151.015625 C 219.972656 153.144531 216.703125 154.664062 213.742188 156.675781 C 211.691406 158.117188 209.375 159.066406 207.324219 160.511719 C 205.726562 161.613281 203.941406 162.410156 202.425781 163.589844 C 200.867188 164.726562 199.234375 165.753906 197.523438 166.664062 C 195.816406 167.765625 194.144531 168.941406 192.246094 169.777344 C 190.535156 170.460938 189.433594 172.058594 187.761719 172.855469 C 184.992188 174.261719 182.597656 176.234375 180.054688 177.984375 C 178.230469 178.210938 176.597656 179.160156 174.851562 179.691406 C 170.027344 181.058594 165.660156 183.640625 160.875 185.160156 C 160.265625 185.273438 159.960938 185.84375 159.808594 186.339844 C 158.519531 190.972656 156.734375 195.453125 155.253906 200.011719 C 152.667969 209.089844 149.59375 217.976562 146.894531 226.976562 C 145.945312 229.636719 145.378906 232.445312 144.390625 235.105469 C 142.71875 239.585938 141.503906 244.183594 140.25 248.816406 C 139.222656 252.652344 140.058594 256.601562 140.097656 260.515625 C 141.199219 266.972656 142.074219 273.65625 145.300781 279.46875 C 146.554688 282.050781 147.808594 284.707031 149.707031 286.910156 C 150.882812 284.746094 151.148438 282.203125 151.871094 279.847656 C 153.316406 275.023438 154.871094 270.238281 156.351562 265.453125 C 158.671875 258.578125 160.53125 251.550781 162.621094 244.601562 C 163.53125 241.296875 165.089844 238.21875 165.695312 234.878906 C 167.214844 229.75 169.191406 224.738281 170.292969 219.535156 C 171.847656 215.847656 172.800781 211.976562 174.050781 208.175781 C 174.660156 205.40625 175.953125 202.820312 176.519531 200.011719 C 177.8125 195.339844 179.523438 190.820312 180.964844 186.222656 C 181.992188 183.792969 182.292969 181.097656 183.507812 178.742188 C 184.574219 179.273438 185.789062 179.046875 186.929688 179.085938 C 189.738281 178.96875 192.433594 179.996094 195.246094 180.222656 C 199.003906 180.566406 202.652344 181.402344 206.375 182.007812 C 208.84375 182.691406 211.199219 183.71875 213.628906 184.476562 C 212.679688 186.222656 212.488281 188.238281 211.691406 190.058594 C 209.03125 196.746094 207.511719 203.847656 204.855469 210.53125 C 203.335938 214.140625 202.613281 218.015625 201.246094 221.660156 C 199.992188 224.925781 199.15625 228.34375 197.902344 231.609375 C 196.535156 235.828125 195.398438 240.117188 193.839844 244.257812 C 192.167969 248.359375 191.410156 252.765625 189.738281 256.90625 C 188.257812 260.78125 187.460938 264.882812 185.941406 268.792969 C 184.382812 273.277344 182.976562 277.832031 181.6875 282.390625 C 180.507812 285.921875 179.066406 289.339844 178.078125 292.910156 C 177.46875 295.265625 176.445312 297.429688 175.722656 299.75 C 178.117188 301.078125 180.890625 300.585938 183.507812 300.660156 C 188.296875 300.621094 193.117188 300.773438 197.902344 300.546875 C 198.738281 298.230469 198.96875 295.761719 199.765625 293.40625 C 201.207031 289.152344 202.804688 284.972656 203.828125 280.644531 C 206.296875 273.996094 208.3125 267.238281 210.324219 260.4375 C 211.046875 258.121094 212.222656 255.957031 212.792969 253.601562 C 213.855469 249.347656 215.300781 245.207031 216.703125 241.070312 C 217.199219 239.320312 217.691406 237.574219 218.335938 235.863281 C 219.742188 232.179688 220.730469 228.382812 221.945312 224.660156 C 223.84375 219.34375 225.25 213.914062 227.226562 208.671875 C 228.515625 204.949219 229.277344 201.074219 230.796875 197.429688 C 231.554688 195.113281 232.695312 192.910156 232.882812 190.441406 C 235.769531 191.199219 238.695312 191.808594 241.429688 192.984375 C 243.101562 193.78125 244.925781 194.277344 246.671875 194.960938 C 248.988281 195.832031 251.265625 196.78125 253.660156 197.429688 C 254.535156 197.617188 255.179688 198.226562 255.785156 198.832031 C 257.34375 196.515625 259.394531 194.617188 261.027344 192.378906 C 265.054688 187.894531 268.851562 183.261719 272.953125 178.855469 C 274.511719 177.222656 275.839844 175.398438 277.359375 173.765625 C 279.410156 171.375 281.726562 169.246094 283.664062 166.777344 C 286.210938 164.121094 288.679688 161.386719 291.03125 158.535156 C 293.007812 156.105469 295.324219 153.980469 297.261719 151.511719 C 299.160156 149.117188 301.023438 146.6875 303.339844 144.710938 C 305.464844 142.128906 307.59375 139.585938 309.679688 136.964844 C 311.390625 134.875 313.515625 133.203125 315.152344 131.039062 C 316.25 129.558594 317.542969 128.226562 318.453125 126.59375 C 311.464844 126.175781 304.441406 125.683594 297.453125 125.605469 C 290.84375 125.074219 284.121094 124.921875 277.398438 124.46875 Z M 277.398438 124.46875 " fill-opacity="1" fill-rule="nonzero"/></svg>